<?xml version="1.0" encoding="utf-8"?>
<!-- Generator: Adobe Illustrator 19.1.0, SVG Export Plug-In . SVG Version: 6.00 Build 0)  -->
<svg version="1.1" baseProfile="tiny" id="Layer_1" xmlns="http://www.w3.org/2000/svg" xmlns:xlink="http://www.w3.org/1999/xlink"
	 x="0px" y="0px" viewBox="-240 332 130 130" xml:space="preserve">
<g id="Layer_1_1_">
	<path fill="#000000" d="M-175,340.9c-31,0-56.1,25.1-56.1,56.1s25.1,56.1,56.1,56.1c31,0,56.1-25.1,56.1-56.1S-144,340.9-175,340.9
		z M-143.8,403.2l-11.3,11.3c-0.6,0.6-1.6,0.6-2.2,0l-17.7-17.7l-17.7,17.7c-0.6,0.6-1.6,0.6-2.2,0l-11.3-11.3
		c-0.6-0.6-0.6-1.6,0-2.2l30-30.1c0.3-0.3,0.7-0.4,1.1-0.4c0.4,0,0.8,0.1,1.1,0.4l30.1,30.1C-143.2,401.7-143.2,402.6-143.8,403.2z"
		/>
</g>
<g id="Layer_2">
	<path fill="#FFFFFF" d="M-192.7,414.5l17.7-17.7l17.7,17.7c0.6,0.6,1.6,0.6,2.2,0l11.3-11.3c0.6-0.6,0.6-1.6,0-2.2l-30.1-30.1
		c-0.3-0.3-0.7-0.5-1.1-0.4c-0.4,0-0.8,0.1-1.1,0.4l-30,30.1c-0.6,0.6-0.6,1.6,0,2.2l11.3,11.3
		C-194.3,415.1-193.3,415.1-192.7,414.5z"/>
</g>
</svg>
