<?xml version="1.0" encoding="utf-8"?>
<!-- Generator: Adobe Illustrator 19.1.0, SVG Export Plug-In . SVG Version: 6.00 Build 0)  -->
<svg version="1.1" baseProfile="tiny" id="Layer_1" xmlns="http://www.w3.org/2000/svg" xmlns:xlink="http://www.w3.org/1999/xlink"
	 x="0px" y="0px" viewBox="-240 332 130 130" xml:space="preserve">
<g id="Layer_1_1_">
	<path fill="#000000" d="M-175,340.9c-31,0-56.1,25.1-56.1,56.1c0,31,25.1,56.1,56.1,56.1s56.1-25.1,56.1-56.1
		C-118.9,366-144,340.9-175,340.9z M-149,398.1l-30.1,30.1c-0.6,0.6-1.6,0.6-2.2,0l-11.3-11.3c-0.6-0.6-0.6-1.6,0-2.2l17.7-17.7
		l-17.7-17.7c-0.6-0.6-0.6-1.6,0-2.2l11.3-11.3c0.6-0.6,1.6-0.6,2.2,0l30.1,30c0.3,0.3,0.4,0.7,0.4,1.1
		C-148.5,397.4-148.6,397.8-149,398.1z"/>
</g>
<g id="Layer_2">
	<path fill="#FFFFFF" d="M-192.5,379.3l17.7,17.7l-17.7,17.7c-0.6,0.6-0.6,1.6,0,2.2l11.3,11.3c0.6,0.6,1.6,0.6,2.2,0l30.1-30.1
		c0.3-0.3,0.5-0.7,0.4-1.1c0-0.4-0.1-0.8-0.4-1.1l-30.1-30c-0.6-0.6-1.6-0.6-2.2,0l-11.3,11.3C-193.1,377.7-193.1,378.7-192.5,379.3
		z"/>
</g>
</svg>
