<?xml version="1.0" encoding="utf-8"?>
<!-- Generator: Adobe Illustrator 19.1.0, SVG Export Plug-In . SVG Version: 6.00 Build 0)  -->
<svg version="1.1" baseProfile="tiny" id="Layer_1" xmlns="http://www.w3.org/2000/svg" xmlns:xlink="http://www.w3.org/1999/xlink"
	 x="0px" y="0px" viewBox="-240 332 130 130" xml:space="preserve">
<g id="Layer_1_1_">
	<path fill="#000000" d="M-175,334.6c-34.4,0-62.4,27.9-62.4,62.4s27.9,62.4,62.4,62.4s62.4-27.9,62.4-62.4
		C-112.6,362.6-140.6,334.6-175,334.6z M-155.6,419.1l-12.5,12.5c-0.7,0.7-1.7,0.7-2.4,0l-33.5-33.4c-0.3-0.3-0.5-0.8-0.5-1.2
		c0-0.5,0.1-0.9,0.5-1.3l33.5-33.4c0.7-0.7,1.7-0.7,2.4,0l12.5,12.5c0.7,0.7,0.7,1.7,0,2.4l-19.7,19.7l19.7,19.7
		C-154.9,417.4-154.9,418.4-155.6,419.1z"/>
</g>
<g id="Layer_2">
	<path fill="#FFFFFF" d="M-155.6,416.7l-19.7-19.7l19.7-19.7c0.7-0.7,0.7-1.7,0-2.4l-12.5-12.5c-0.7-0.7-1.7-0.7-2.4,0l-33.5,33.4
		c-0.3,0.3-0.5,0.8-0.5,1.3c0,0.4,0.2,0.9,0.5,1.2l33.5,33.4c0.7,0.7,1.7,0.7,2.4,0l12.5-12.5C-154.9,418.4-154.9,417.4-155.6,416.7
		z"/>
</g>
</svg>
