<?xml version="1.0" encoding="utf-8"?>
<!-- Generator: Adobe Illustrator 19.1.0, SVG Export Plug-In . SVG Version: 6.00 Build 0)  -->
<svg version="1.1" baseProfile="tiny" id="Layer_1" xmlns="http://www.w3.org/2000/svg" xmlns:xlink="http://www.w3.org/1999/xlink"
	 x="0px" y="0px" viewBox="-240 332 130 130" xml:space="preserve">
<g id="Layer_1_1_">
	<path fill="#000000" d="M-175,334.6c-34.4,0-62.4,27.9-62.4,62.4s27.9,62.4,62.4,62.4c34.4,0,62.4-27.9,62.4-62.4
		S-140.6,334.6-175,334.6z M-140.4,403.9l-12.5,12.5c-0.7,0.7-1.7,0.7-2.4,0l-19.7-19.7l-19.7,19.7c-0.7,0.7-1.7,0.7-2.4,0
		l-12.5-12.5c-0.7-0.7-0.7-1.7,0-2.4l33.4-33.5c0.3-0.3,0.8-0.5,1.2-0.5c0.5,0,0.9,0.1,1.3,0.5l33.4,33.5
		C-139.7,402.2-139.7,403.3-140.4,403.9z"/>
</g>
<g id="Layer_2">
	<path fill="#FFFFFF" d="M-194.7,416.4l19.7-19.7l19.7,19.7c0.7,0.7,1.7,0.7,2.4,0l12.5-12.5c0.7-0.7,0.7-1.7,0-2.4l-33.4-33.5
		c-0.3-0.3-0.8-0.5-1.3-0.5c-0.4,0-0.9,0.2-1.2,0.5l-33.4,33.5c-0.7,0.7-0.7,1.7,0,2.4l12.5,12.5
		C-196.4,417.1-195.4,417.1-194.7,416.4z"/>
</g>
</svg>
