<?xml version="1.0" encoding="utf-8"?>
<!-- Generator: Adobe Illustrator 19.1.0, SVG Export Plug-In . SVG Version: 6.00 Build 0)  -->
<svg version="1.1" baseProfile="tiny" id="Layer_1" xmlns="http://www.w3.org/2000/svg" xmlns:xlink="http://www.w3.org/1999/xlink"
	 x="0px" y="0px" viewBox="-240 332 130 130" xml:space="preserve">
<g id="Layer_1_1_">
	<path fill="#000000" d="M-175,334.6c-34.4,0-62.4,27.9-62.4,62.4c0,34.4,27.9,62.4,62.4,62.4s62.4-27.9,62.4-62.4
		C-112.6,362.6-140.6,334.6-175,334.6z M-146.1,398.2l-33.5,33.4c-0.7,0.7-1.7,0.7-2.4,0l-12.5-12.5c-0.7-0.7-0.7-1.7,0-2.4
		l19.7-19.7l-19.7-19.7c-0.7-0.7-0.7-1.7,0-2.4l12.5-12.5c0.7-0.7,1.7-0.7,2.4,0l33.5,33.4c0.3,0.3,0.5,0.8,0.5,1.2
		C-145.6,397.4-145.7,397.9-146.1,398.2z"/>
</g>
<g id="Layer_2">
	<path fill="#FFFFFF" d="M-194.4,377.3l19.7,19.7l-19.7,19.7c-0.7,0.7-0.7,1.7,0,2.4l12.5,12.5c0.7,0.7,1.7,0.7,2.4,0l33.5-33.4
		c0.3-0.3,0.5-0.8,0.5-1.3c0-0.4-0.2-0.9-0.5-1.2l-33.5-33.4c-0.7-0.7-1.7-0.7-2.4,0l-12.5,12.5
		C-195.1,375.6-195.1,376.6-194.4,377.3z"/>
</g>
</svg>
