<?xml version="1.0" encoding="utf-8"?>
<!-- Generator: Adobe Illustrator 19.1.0, SVG Export Plug-In . SVG Version: 6.00 Build 0)  -->
<svg version="1.1" baseProfile="tiny" id="Layer_1" xmlns="http://www.w3.org/2000/svg" xmlns:xlink="http://www.w3.org/1999/xlink"
	 x="0px" y="0px" viewBox="-240 332 130 130" xml:space="preserve">
<g id="Layer_1_1_">
	<path fill="#000000" d="M-175,340.8c-31,0-56.2,25.1-56.2,56.2s25.1,56.2,56.2,56.2s56.2-25.1,56.2-56.2
		C-118.8,366-144,340.8-175,340.8z M-157.5,416.9l-11.3,11.3c-0.6,0.6-1.5,0.6-2.2,0l-30.2-30.1c-0.3-0.3-0.4-0.7-0.4-1.1
		c0-0.5,0.1-0.8,0.4-1.2l30.2-30.1c0.6-0.6,1.5-0.6,2.2,0l11.3,11.3c0.6,0.6,0.6,1.5,0,2.2l-17.7,17.7l17.7,17.7
		C-156.9,415.4-156.9,416.3-157.5,416.9z"/>
</g>
<g id="Layer_2">
	<path fill="#FFFFFF" d="M-157.5,414.7l-17.7-17.7l17.7-17.7c0.6-0.6,0.6-1.5,0-2.2l-11.3-11.3c-0.6-0.6-1.5-0.6-2.2,0l-30.2,30.1
		c-0.3,0.3-0.4,0.7-0.4,1.2c0,0.4,0.2,0.8,0.4,1.1l30.2,30.1c0.6,0.6,1.5,0.6,2.2,0l11.3-11.3C-156.9,416.3-156.9,415.4-157.5,414.7
		z"/>
</g>
</svg>
